<?xml version="1.0" standalone="no"?>
<!DOCTYPE svg PUBLIC "-//W3C//DTD SVG 20010904//EN"
 "http://www.w3.org/TR/2001/REC-SVG-20010904/DTD/svg10.dtd">
<svg version="1.0" xmlns="http://www.w3.org/2000/svg"
 width="64.000000pt" height="64.000000pt" viewBox="0 0 64.000000 64.000000"
 preserveAspectRatio="xMidYMid meet">

<g transform="translate(0.000000,64.000000) scale(0.100000,-0.100000)"
fill="#000000" stroke="none">
<path d="M155 595 c-95 -25 -125 -91 -125 -275 0 -243 47 -290 290 -290 243 0
290 47 290 290 0 245 -47 291 -298 289 -59 0 -129 -6 -157 -14z m349 -48 c55
-37 61 -58 61 -227 0 -170 -6 -190 -62 -227 -40 -27 -326 -27 -366 0 -47 31
-58 59 -64 165 -8 147 3 227 36 264 36 40 76 48 238 44 103 -2 137 -6 157 -19z"/>
<path d="M215 440 c-10 -11 -29 -20 -42 -20 -28 0 -30 -21 -3 -45 20 -18 21
-18 60 20 22 22 40 45 40 52 0 20 -35 15 -55 -7z"/>
<path d="M312 403 c3 -16 15 -18 88 -18 73 0 85 2 88 18 3 15 -6 17 -88 17
-82 0 -91 -2 -88 -17z"/>
<path d="M220 255 c-15 -16 -30 -23 -42 -19 -11 3 -20 -1 -24 -10 -8 -20 13
-46 35 -46 25 0 85 65 78 84 -9 22 -20 20 -47 -9z"/>
<path d="M317 234 c-4 -4 -7 -13 -7 -21 0 -10 22 -13 91 -13 81 0 90 2 87 18
-3 14 -16 17 -84 20 -44 1 -83 0 -87 -4z"/>
</g>
</svg>
